# xmcd
#
# Track frame offsets:
#  150
#  40398
#  65745
#  89397
#  118980
#  148938
#  169596
#  182408
#  206254
#  236678
#
# Disc length: 3516 seconds
#
# Revision: 0
# Processed by: cddbd v1.5.1PL2 Copyright (c) Steve Scherf et al.
# Submitted via: Collectorz.com_Music_Collector 6.11
#
DISCID=900dba0a
DTITLE=The Revelators - Floating Bridge
DYEAR=2001
DGENRE=
TTITLE0=Chosen Ones
TTITLE1=Cypress Grove Blues
TTITLE2=Beside You
TTITLE3=Louisianna Blues
TTITLE4=True Love Travels On A Gravel Road
TTITLE5=The Key To My Heart
TTITLE6=Honest I Do
TTITLE7=Floating Bridge
TTITLE8=Beast Of Burden
TTITLE9=Ruler Of My Heart
EXTD=
EXTT0=
EXTT1=
EXTT2=
EXTT3=
EXTT4=
EXTT5=
EXTT6=
EXTT7=
EXTT8=
EXTT9=
PLAYORDER=
